# xmcd
#
# Track frame offsets:
#	150
#	12905
#	28539
#	39723
#	54090
#	68124
#	82166
#	95945
#	110643
#	123595
#	140186
#	159493
#	176857
#	189918
#	202333
#	217683
#	235045
#	264178
#	282899
#	302478
#	318074
#	337398
#
# Disc length: 4675 seconds
#
# Revision: 1
# Processed by: cddbd v1.5.2PL0 Copyright (c) Steve Scherf et al.
# Submitted via: audiograbber 1.83.01
#
DISCID=43124116
DTITLE=Various Artist - Karaoke Superhits/Country Box Set CD 2
DYEAR=2011
DGENRE=Country
TTITLE0=Folsom Prison Blues/Johnny Cash
TTITLE1=Harper Valley PTA/Jeannie C. Riley
TTITLE2=Hello Mary Lou/Ricky Nelson
TTITLE3=Here You Come Again/Dolly Parton
TTITLE4=Hey Good Lookin'/Hank Williams
TTITLE5=I Can Help/Billy Swan
TTITLE6=I Fall To Pieces/Patsy Cline
TTITLE7=I Recall A Gypsy Woman/Don Williams
TTITLE8=I Walk The Line/Johnny Cash
TTITLE9=If I Said You Had A Beautiful Body/The Bellamy Brothers
TTITLE10=Islands In The Stream/Kenny Rogers and Dolly Parton
TTITLE11=Jambalaya/The Carpenters
TTITLE12=Jolene/Dolly Parton
TTITLE13=King Of The Road/Roger Miller
TTITLE14=Let Your Love Flow/The Bellamy Brothers
TTITLE15=Lucille/Kenny Rogers
TTITLE16=Lyin' Eyes/The Eagles
TTITLE17=Man! I Feel Like A Woman/Shania Twain
TTITLE18=Margaritaville/Jimmy Buffett
TTITLE19=One Day At A Time/Lena Martell
TTITLE20=One Piece At A Time/Johnny Cash
TTITLE21=Paper Roses/Marie Osmond
EXTD=
EXTT0=
EXTT1=
EXTT2=
EXTT3=
EXTT4=
EXTT5=
EXTT6=
EXTT7=
EXTT8=
EXTT9=
EXTT10=
EXTT11=
EXTT12=
EXTT13=
EXTT14=
EXTT15=
EXTT16=
EXTT17=
EXTT18=
EXTT19=
EXTT20=
EXTT21=
PLAYORDER=
